{
    "asset" : {
        "generator" : "Khronos glTF Blender I/O v3.4.50",
        "version" : "2.0"
    },
    "extensionsUsed" : [
        "KHR_materials_clearcoat",
        "KHR_materials_emissive_strength"
    ],
    "scene" : 0,
    "scenes" : [
        {
            "name" : "Scene",
            "nodes" : [
                0
            ]
        }
    ],
    "nodes" : [
        {
            "mesh" : 0,
            "name" : "Cube",
            "scale" : [
                3.5,
                3.5,
                3.5
            ]
        }
    ],
    "materials" : [
        {
            "doubleSided" : true,
            "name" : "Steel",
            "pbrMetallicRoughness" : {
                "baseColorFactor" : [
                    0.5990023016929626,
                    0.6560128927230835,
                    0.702420711517334,
                    1
                ],
                "roughnessFactor" : 0.45571428537368774
            }
        },
        {
            "doubleSided" : true,
            "emissiveFactor" : [
                1,
                0.10729664790171153,
                0.013336554707630482
            ],
            "extensions" : {
                "KHR_materials_clearcoat" : {
                    "clearcoatFactor" : 1,
                    "clearcoatRoughnessFactor" : 0.029999999329447746
                },
                "KHR_materials_emissive_strength" : {
                    "emissiveStrength" : 7.4943530559539795
                }
            },
            "name" : "Glowing Yellow",
            "pbrMetallicRoughness" : {
                "baseColorFactor" : [
                    0.5209956765174866,
                    0.2541521489620209,
                    0.0018211622955277562,
                    1
                ],
                "metallicFactor" : 0.04098360612988472,
                "roughnessFactor" : 0
            }
        },
        {
            "doubleSided" : true,
            "name" : "Anodized Aluminum",
            "pbrMetallicRoughness" : {
                "baseColorFactor" : [
                    0.03760015591979027,
                    0.03760015591979027,
                    0.03760015591979027,
                    1
                ],
                "roughnessFactor" : 0.5
            }
        },
        {
            "doubleSided" : true,
            "name" : "Shiny Steel",
            "pbrMetallicRoughness" : {
                "baseColorFactor" : [
                    0.5972012877464294,
                    0.6583743095397949,
                    0.7011018991470337,
                    1
                ],
                "roughnessFactor" : 0.48770493268966675
            }
        }
    ],
    "meshes" : [
        {
            "name" : "Cube",
            "primitives" : [
                {
                    "attributes" : {
                        "POSITION" : 0,
                        "TEXCOORD_0" : 1,
                        "NORMAL" : 2
                    },
                    "indices" : 3,
                    "material" : 0
                },
                {
                    "attributes" : {
                        "POSITION" : 4,
                        "TEXCOORD_0" : 5,
                        "NORMAL" : 6
                    },
                    "indices" : 7,
                    "material" : 1
                },
                {
                    "attributes" : {
                        "POSITION" : 8,
                        "TEXCOORD_0" : 9,
                        "NORMAL" : 10
                    },
                    "indices" : 11,
                    "material" : 2
                },
                {
                    "attributes" : {
                        "POSITION" : 12,
                        "TEXCOORD_0" : 13,
                        "NORMAL" : 14
                    },
                    "indices" : 15,
                    "material" : 3
                }
            ]
        }
    ],
    "accessors" : [
        {
            "bufferView" : 0,
            "componentType" : 5126,
            "count" : 14559,
            "max" : [
                1.1417689323425293,
                1.1417689323425293,
                1.1488583087921143
            ],
            "min" : [
                -1.1417689323425293,
                -1.1417689323425293,
                -0.0002163679600926116
            ],
            "type" : "VEC3"
        },
        {
            "bufferView" : 1,
            "componentType" : 5126,
            "count" : 14559,
            "type" : "VEC2"
        },
        {
            "bufferView" : 2,
            "componentType" : 5126,
            "count" : 14559,
            "type" : "VEC3"
        },
        {
            "bufferView" : 3,
            "componentType" : 5123,
            "count" : 28032,
            "type" : "SCALAR"
        },
        {
            "bufferView" : 4,
            "componentType" : 5126,
            "count" : 504,
            "max" : [
                1.1579687595367432,
                1.1579687595367432,
                0.9570382237434387
            ],
            "min" : [
                -1.1579687595367432,
                -1.1579687595367432,
                0.13264024257659912
            ],
            "type" : "VEC3"
        },
        {
            "bufferView" : 5,
            "componentType" : 5126,
            "count" : 504,
            "type" : "VEC2"
        },
        {
            "bufferView" : 6,
            "componentType" : 5126,
            "count" : 504,
            "type" : "VEC3"
        },
        {
            "bufferView" : 7,
            "componentType" : 5123,
            "count" : 1056,
            "type" : "SCALAR"
        },
        {
            "bufferView" : 8,
            "componentType" : 5126,
            "count" : 1900,
            "max" : [
                1.1435353755950928,
                1.1435353755950928,
                1.017989993095398
            ],
            "min" : [
                -1.1435353755950928,
                -1.1435353755950928,
                -0.0002163679600926116
            ],
            "type" : "VEC3"
        },
        {
            "bufferView" : 9,
            "componentType" : 5126,
            "count" : 1900,
            "type" : "VEC2"
        },
        {
            "bufferView" : 10,
            "componentType" : 5126,
            "count" : 1900,
            "type" : "VEC3"
        },
        {
            "bufferView" : 11,
            "componentType" : 5123,
            "count" : 4008,
            "type" : "SCALAR"
        },
        {
            "bufferView" : 12,
            "componentType" : 5126,
            "count" : 196,
            "max" : [
                1.0855199098587036,
                1.085933804512024,
                0.9517020583152771
            ],
            "min" : [
                -1.0855199098587036,
                -1.085933804512024,
                0.21628537774085999
            ],
            "type" : "VEC3"
        },
        {
            "bufferView" : 13,
            "componentType" : 5126,
            "count" : 196,
            "type" : "VEC2"
        },
        {
            "bufferView" : 14,
            "componentType" : 5126,
            "count" : 196,
            "type" : "VEC3"
        },
        {
            "bufferView" : 15,
            "componentType" : 5123,
            "count" : 480,
            "type" : "SCALAR"
        }
    ],
    "bufferViews" : [
        {
            "buffer" : 0,
            "byteLength" : 174708,
            "byteOffset" : 0,
            "target" : 34962
        },
        {
            "buffer" : 0,
            "byteLength" : 116472,
            "byteOffset" : 174708,
            "target" : 34962
        },
        {
            "buffer" : 0,
            "byteLength" : 174708,
            "byteOffset" : 291180,
            "target" : 34962
        },
        {
            "buffer" : 0,
            "byteLength" : 56064,
            "byteOffset" : 465888,
            "target" : 34963
        },
        {
            "buffer" : 0,
            "byteLength" : 6048,
            "byteOffset" : 521952,
            "target" : 34962
        },
        {
            "buffer" : 0,
            "byteLength" : 4032,
            "byteOffset" : 528000,
            "target" : 34962
        },
        {
            "buffer" : 0,
            "byteLength" : 6048,
            "byteOffset" : 532032,
            "target" : 34962
        },
        {
            "buffer" : 0,
            "byteLength" : 2112,
            "byteOffset" : 538080,
            "target" : 34963
        },
        {
            "buffer" : 0,
            "byteLength" : 22800,
            "byteOffset" : 540192,
            "target" : 34962
        },
        {
            "buffer" : 0,
            "byteLength" : 15200,
            "byteOffset" : 562992,
            "target" : 34962
        },
        {
            "buffer" : 0,
            "byteLength" : 22800,
            "byteOffset" : 578192,
            "target" : 34962
        },
        {
            "buffer" : 0,
            "byteLength" : 8016,
            "byteOffset" : 600992,
            "target" : 34963
        },
        {
            "buffer" : 0,
            "byteLength" : 2352,
            "byteOffset" : 609008,
            "target" : 34962
        },
        {
            "buffer" : 0,
            "byteLength" : 1568,
            "byteOffset" : 611360,
            "target" : 34962
        },
        {
            "buffer" : 0,
            "byteLength" : 2352,
            "byteOffset" : 612928,
            "target" : 34962
        },
        {
            "buffer" : 0,
            "byteLength" : 960,
            "byteOffset" : 615280,
            "target" : 34963
        }
    ],
    "buffers" : [
        {
            "byteLength" : 616240,
            "uri" : "data:application/octet-stream;base64,"
        }
    ]
}
