{
    "asset" : {
        "generator" : "Khronos glTF Blender I/O v3.4.50",
        "version" : "2.0"
    },
    "scene" : 0,
    "scenes" : [
        {
            "name" : "Scene",
            "nodes" : [
                0
            ]
        }
    ],
    "nodes" : [
        {
            "mesh" : 0,
            "name" : "Cube",
            "rotation" : [
                0.6963642835617065,
                -0.12278782576322556,
                0.12278777360916138,
                0.6963642835617065
            ],
            "translation" : [
                0,
                0.14999999105930328,
                -1
            ]
        }
    ],
    "materials" : [
        {
            "doubleSided" : true,
            "name" : "Steel",
            "pbrMetallicRoughness" : {
                "baseColorFactor" : [
                    0.4859689474105835,
                    0.5455785393714905,
                    0.702420711517334,
                    1
                ],
                "roughnessFactor" : 0.25
            }
        }
    ],
    "meshes" : [
        {
            "name" : "Cube.001",
            "primitives" : [
                {
                    "attributes" : {
                        "POSITION" : 0,
                        "TEXCOORD_0" : 1,
                        "NORMAL" : 2
                    },
                    "indices" : 3,
                    "material" : 0
                }
            ]
        }
    ],
    "accessors" : [
        {
            "bufferView" : 0,
            "componentType" : 5126,
            "count" : 3520,
            "max" : [
                1,
                5,
                0.30000001192092896
            ],
            "min" : [
                -1,
                -2.999999761581421,
                0
            ],
            "type" : "VEC3"
        },
        {
            "bufferView" : 1,
            "componentType" : 5126,
            "count" : 3520,
            "type" : "VEC2"
        },
        {
            "bufferView" : 2,
            "componentType" : 5126,
            "count" : 3520,
            "type" : "VEC3"
        },
        {
            "bufferView" : 3,
            "componentType" : 5123,
            "count" : 10308,
            "type" : "SCALAR"
        }
    ],
    "bufferViews" : [
        {
            "buffer" : 0,
            "byteLength" : 42240,
            "byteOffset" : 0,
            "target" : 34962
        },
        {
            "buffer" : 0,
            "byteLength" : 28160,
            "byteOffset" : 42240,
            "target" : 34962
        },
        {
            "buffer" : 0,
            "byteLength" : 42240,
            "byteOffset" : 70400,
            "target" : 34962
        },
        {
            "buffer" : 0,
            "byteLength" : 20616,
            "byteOffset" : 112640,
            "target" : 34963
        }
    ],
    "buffers" : [
        {
            "byteLength" : 133256,
            "uri" : "data:application/octet-stream;base64,"
        }
    ]
}
