{
    "asset" : {
        "generator" : "Khronos glTF Blender I/O v3.4.50",
        "version" : "2.0"
    },
    "extensionsUsed" : [
        "KHR_materials_emissive_strength",
        "KHR_materials_clearcoat"
    ],
    "scene" : 0,
    "scenes" : [
        {
            "name" : "Scene",
            "nodes" : [
                0
            ]
        }
    ],
    "nodes" : [
        {
            "mesh" : 0,
            "name" : "Body",
            "translation" : [
                0,
                -1.8757086992263794,
                0
            ]
        }
    ],
    "materials" : [
        {
            "doubleSided" : true,
            "name" : "Accent",
            "pbrMetallicRoughness" : {
                "baseColorFactor" : [
                    0.04817177355289459,
                    0.04518617317080498,
                    0.06480326503515244,
                    1
                ],
                "metallicFactor" : 0,
                "roughnessFactor" : 0.5
            }
        },
        {
            "doubleSided" : true,
            "name" : "Base",
            "pbrMetallicRoughness" : {
                "baseColorFactor" : [
                    0.8549928665161133,
                    0.08650045096874237,
                    0.04373503103852272,
                    1
                ],
                "metallicFactor" : 0,
                "roughnessFactor" : 0.5
            }
        },
        {
            "doubleSided" : true,
            "name" : "Black Glass",
            "pbrMetallicRoughness" : {
                "baseColorFactor" : [
                    0.04603053256869316,
                    0.047688208520412445,
                    0.08421357721090317,
                    1
                ],
                "metallicFactor" : 0,
                "roughnessFactor" : 0.09714286029338837
            }
        },
        {
            "doubleSided" : true,
            "emissiveFactor" : [
                0.0214506303029215,
                0.5197454141253823,
                1
            ],
            "extensions" : {
                "KHR_materials_emissive_strength" : {
                    "emissiveStrength" : 78.35378646850586
                }
            },
            "name" : "Engine Glow",
            "pbrMetallicRoughness" : {
                "baseColorFactor" : [
                    0.009720401838421822,
                    0.4072398543357849,
                    0.7991028428077698,
                    1
                ],
                "metallicFactor" : 0,
                "roughnessFactor" : 0.5
            }
        },
        {
            "doubleSided" : true,
            "extensions" : {
                "KHR_materials_clearcoat" : {
                    "clearcoatFactor" : 1,
                    "clearcoatRoughnessFactor" : 0.029999999329447746
                }
            },
            "name" : "Accent Chrome",
            "pbrMetallicRoughness" : {
                "roughnessFactor" : 0.2768361568450928
            }
        }
    ],
    "meshes" : [
        {
            "name" : "Cube.004",
            "primitives" : [
                {
                    "attributes" : {
                        "POSITION" : 0,
                        "TEXCOORD_0" : 1,
                        "NORMAL" : 2
                    },
                    "indices" : 3,
                    "material" : 0
                },
                {
                    "attributes" : {
                        "POSITION" : 4,
                        "TEXCOORD_0" : 5,
                        "NORMAL" : 6
                    },
                    "indices" : 7,
                    "material" : 1
                },
                {
                    "attributes" : {
                        "POSITION" : 8,
                        "TEXCOORD_0" : 9,
                        "NORMAL" : 10
                    },
                    "indices" : 11,
                    "material" : 2
                },
                {
                    "attributes" : {
                        "POSITION" : 12,
                        "TEXCOORD_0" : 13,
                        "NORMAL" : 14
                    },
                    "indices" : 15,
                    "material" : 3
                },
                {
                    "attributes" : {
                        "POSITION" : 16,
                        "TEXCOORD_0" : 17,
                        "NORMAL" : 18
                    },
                    "indices" : 19,
                    "material" : 4
                }
            ]
        }
    ],
    "accessors" : [
        {
            "bufferView" : 0,
            "componentType" : 5126,
            "count" : 7888,
            "max" : [
                3.965052366256714,
                7.540781021118164,
                1.2582112550735474
            ],
            "min" : [
                -3.965052366256714,
                -3.446730613708496,
                -0.18170209228992462
            ],
            "type" : "VEC3"
        },
        {
            "bufferView" : 1,
            "componentType" : 5126,
            "count" : 7888,
            "type" : "VEC2"
        },
        {
            "bufferView" : 2,
            "componentType" : 5126,
            "count" : 7888,
            "type" : "VEC3"
        },
        {
            "bufferView" : 3,
            "componentType" : 5123,
            "count" : 16530,
            "type" : "SCALAR"
        },
        {
            "bufferView" : 4,
            "componentType" : 5126,
            "count" : 34159,
            "max" : [
                4.835546016693115,
                7.345912933349609,
                1.1331583261489868
            ],
            "min" : [
                -4.835546016693115,
                -3.544966697692871,
                -0.18180082738399506
            ],
            "type" : "VEC3"
        },
        {
            "bufferView" : 5,
            "componentType" : 5126,
            "count" : 34159,
            "type" : "VEC2"
        },
        {
            "bufferView" : 6,
            "componentType" : 5126,
            "count" : 34159,
            "type" : "VEC3"
        },
        {
            "bufferView" : 7,
            "componentType" : 5123,
            "count" : 51348,
            "type" : "SCALAR"
        },
        {
            "bufferView" : 8,
            "componentType" : 5126,
            "count" : 962,
            "max" : [
                0.48421066999435425,
                -3.4437320232391357,
                0.34136033058166504
            ],
            "min" : [
                -0.48421066999435425,
                -3.7196197509765625,
                -0.1611124575138092
            ],
            "type" : "VEC3"
        },
        {
            "bufferView" : 9,
            "componentType" : 5126,
            "count" : 962,
            "type" : "VEC2"
        },
        {
            "bufferView" : 10,
            "componentType" : 5126,
            "count" : 962,
            "type" : "VEC3"
        },
        {
            "bufferView" : 11,
            "componentType" : 5123,
            "count" : 1470,
            "type" : "SCALAR"
        },
        {
            "bufferView" : 12,
            "componentType" : 5126,
            "count" : 768,
            "max" : [
                0.6262167692184448,
                7.471118450164795,
                1.2467584609985352
            ],
            "min" : [
                -0.6262167692184448,
                7.316753387451172,
                0.8144052028656006
            ],
            "type" : "VEC3"
        },
        {
            "bufferView" : 13,
            "componentType" : 5126,
            "count" : 768,
            "type" : "VEC2"
        },
        {
            "bufferView" : 14,
            "componentType" : 5126,
            "count" : 768,
            "type" : "VEC3"
        },
        {
            "bufferView" : 15,
            "componentType" : 5123,
            "count" : 2844,
            "type" : "SCALAR"
        },
        {
            "bufferView" : 16,
            "componentType" : 5126,
            "count" : 1824,
            "max" : [
                0.6350924372673035,
                7.540781021118164,
                1.2581528425216675
            ],
            "min" : [
                -0.6350924372673035,
                7.316956996917725,
                0.8131772875785828
            ],
            "type" : "VEC3"
        },
        {
            "bufferView" : 17,
            "componentType" : 5126,
            "count" : 1824,
            "type" : "VEC2"
        },
        {
            "bufferView" : 18,
            "componentType" : 5126,
            "count" : 1824,
            "type" : "VEC3"
        },
        {
            "bufferView" : 19,
            "componentType" : 5123,
            "count" : 5760,
            "type" : "SCALAR"
        }
    ],
    "bufferViews" : [
        {
            "buffer" : 0,
            "byteLength" : 94656,
            "byteOffset" : 0,
            "target" : 34962
        },
        {
            "buffer" : 0,
            "byteLength" : 63104,
            "byteOffset" : 94656,
            "target" : 34962
        },
        {
            "buffer" : 0,
            "byteLength" : 94656,
            "byteOffset" : 157760,
            "target" : 34962
        },
        {
            "buffer" : 0,
            "byteLength" : 33060,
            "byteOffset" : 252416,
            "target" : 34963
        },
        {
            "buffer" : 0,
            "byteLength" : 409908,
            "byteOffset" : 285476,
            "target" : 34962
        },
        {
            "buffer" : 0,
            "byteLength" : 273272,
            "byteOffset" : 695384,
            "target" : 34962
        },
        {
            "buffer" : 0,
            "byteLength" : 409908,
            "byteOffset" : 968656,
            "target" : 34962
        },
        {
            "buffer" : 0,
            "byteLength" : 102696,
            "byteOffset" : 1378564,
            "target" : 34963
        },
        {
            "buffer" : 0,
            "byteLength" : 11544,
            "byteOffset" : 1481260,
            "target" : 34962
        },
        {
            "buffer" : 0,
            "byteLength" : 7696,
            "byteOffset" : 1492804,
            "target" : 34962
        },
        {
            "buffer" : 0,
            "byteLength" : 11544,
            "byteOffset" : 1500500,
            "target" : 34962
        },
        {
            "buffer" : 0,
            "byteLength" : 2940,
            "byteOffset" : 1512044,
            "target" : 34963
        },
        {
            "buffer" : 0,
            "byteLength" : 9216,
            "byteOffset" : 1514984,
            "target" : 34962
        },
        {
            "buffer" : 0,
            "byteLength" : 6144,
            "byteOffset" : 1524200,
            "target" : 34962
        },
        {
            "buffer" : 0,
            "byteLength" : 9216,
            "byteOffset" : 1530344,
            "target" : 34962
        },
        {
            "buffer" : 0,
            "byteLength" : 5688,
            "byteOffset" : 1539560,
            "target" : 34963
        },
        {
            "buffer" : 0,
            "byteLength" : 21888,
            "byteOffset" : 1545248,
            "target" : 34962
        },
        {
            "buffer" : 0,
            "byteLength" : 14592,
            "byteOffset" : 1567136,
            "target" : 34962
        },
        {
            "buffer" : 0,
            "byteLength" : 21888,
            "byteOffset" : 1581728,
            "target" : 34962
        },
        {
            "buffer" : 0,
            "byteLength" : 11520,
            "byteOffset" : 1603616,
            "target" : 34963
        }
    ],
    "buffers" : [
        {
            "byteLength" : 1615136,
            "uri" : "data:application/octet-stream;base64,"
        }
    ]
}
