{
    "asset" : {
        "generator" : "Khronos glTF Blender I/O v3.4.50",
        "version" : "2.0"
    },
    "extensionsUsed" : [
        "KHR_materials_clearcoat",
        "KHR_materials_emissive_strength"
    ],
    "scene" : 0,
    "scenes" : [
        {
            "name" : "Scene",
            "nodes" : [
                0
            ]
        }
    ],
    "nodes" : [
        {
            "mesh" : 0,
            "name" : "Body",
            "translation" : [
                0,
                -1.1810683012008667,
                0.5
            ]
        }
    ],
    "materials" : [
        {
            "doubleSided" : true,
            "name" : "Orange",
            "pbrMetallicRoughness" : {
                "baseColorFactor" : [
                    0.8962695598602295,
                    0.12229463458061218,
                    0.025159627199172974,
                    1
                ],
                "metallicFactor" : 0,
                "roughnessFactor" : 0.5
            }
        },
        {
            "doubleSided" : true,
            "name" : "white",
            "pbrMetallicRoughness" : {
                "metallicFactor" : 0,
                "roughnessFactor" : 0.5
            }
        },
        {
            "doubleSided" : true,
            "name" : "Grey",
            "pbrMetallicRoughness" : {
                "baseColorFactor" : [
                    0.05089174583554268,
                    0.09274013340473175,
                    0.133615180850029,
                    1
                ],
                "metallicFactor" : 0
            }
        },
        {
            "doubleSided" : true,
            "extensions" : {
                "KHR_materials_clearcoat" : {
                    "clearcoatFactor" : 1,
                    "clearcoatRoughnessFactor" : 0.029999999329447746
                }
            },
            "name" : "Blue",
            "pbrMetallicRoughness" : {
                "baseColorFactor" : [
                    0.012286492623388767,
                    0.39157259464263916,
                    0.7605247497558594,
                    1
                ],
                "metallicFactor" : 0,
                "roughnessFactor" : 0
            }
        },
        {
            "doubleSided" : true,
            "emissiveFactor" : [
                0.0214506303029215,
                0.5197454141253823,
                1
            ],
            "extensions" : {
                "KHR_materials_emissive_strength" : {
                    "emissiveStrength" : 15.670757293701172
                }
            },
            "name" : "Engine Glow",
            "pbrMetallicRoughness" : {
                "baseColorFactor" : [
                    0.009721221402287483,
                    0.40724021196365356,
                    0.7991029620170593,
                    1
                ],
                "metallicFactor" : 0,
                "roughnessFactor" : 0.5
            }
        },
        {
            "doubleSided" : true,
            "name" : "Blue Glass",
            "pbrMetallicRoughness" : {
                "baseColorFactor" : [
                    0.014443845488131046,
                    0.07421357929706573,
                    0.18116427958011627,
                    1
                ],
                "roughnessFactor" : 0.30000001192092896
            }
        }
    ],
    "meshes" : [
        {
            "name" : "Cube",
            "primitives" : [
                {
                    "attributes" : {
                        "POSITION" : 0,
                        "TEXCOORD_0" : 1,
                        "NORMAL" : 2
                    },
                    "indices" : 3,
                    "material" : 0
                },
                {
                    "attributes" : {
                        "POSITION" : 4,
                        "TEXCOORD_0" : 5,
                        "NORMAL" : 6
                    },
                    "indices" : 7,
                    "material" : 1
                },
                {
                    "attributes" : {
                        "POSITION" : 8,
                        "TEXCOORD_0" : 9,
                        "NORMAL" : 10
                    },
                    "indices" : 11,
                    "material" : 2
                },
                {
                    "attributes" : {
                        "POSITION" : 12,
                        "TEXCOORD_0" : 13,
                        "NORMAL" : 14
                    },
                    "indices" : 15,
                    "material" : 3
                },
                {
                    "attributes" : {
                        "POSITION" : 16,
                        "TEXCOORD_0" : 17,
                        "NORMAL" : 18
                    },
                    "indices" : 19,
                    "material" : 4
                },
                {
                    "attributes" : {
                        "POSITION" : 20,
                        "TEXCOORD_0" : 21,
                        "NORMAL" : 22
                    },
                    "indices" : 23,
                    "material" : 5
                }
            ]
        }
    ],
    "accessors" : [
        {
            "bufferView" : 0,
            "componentType" : 5126,
            "count" : 5899,
            "max" : [
                1.840000033378601,
                5.599999904632568,
                1.0099999904632568
            ],
            "min" : [
                -1.840000033378601,
                -3.000000476837158,
                -1.2000000476837158
            ],
            "type" : "VEC3"
        },
        {
            "bufferView" : 1,
            "componentType" : 5126,
            "count" : 5899,
            "type" : "VEC2"
        },
        {
            "bufferView" : 2,
            "componentType" : 5126,
            "count" : 5899,
            "type" : "VEC3"
        },
        {
            "bufferView" : 3,
            "componentType" : 5123,
            "count" : 8976,
            "type" : "SCALAR"
        },
        {
            "bufferView" : 4,
            "componentType" : 5126,
            "count" : 11825,
            "max" : [
                1.8042490482330322,
                4.905145168304443,
                1.100000023841858
            ],
            "min" : [
                -1.809999942779541,
                -2.8042492866516113,
                -1.2000000476837158
            ],
            "type" : "VEC3"
        },
        {
            "bufferView" : 5,
            "componentType" : 5126,
            "count" : 11825,
            "type" : "VEC2"
        },
        {
            "bufferView" : 6,
            "componentType" : 5126,
            "count" : 11825,
            "type" : "VEC3"
        },
        {
            "bufferView" : 7,
            "componentType" : 5123,
            "count" : 18408,
            "type" : "SCALAR"
        },
        {
            "bufferView" : 8,
            "componentType" : 5126,
            "count" : 7863,
            "max" : [
                1.600000023841858,
                5.597070217132568,
                0.34590137004852295
            ],
            "min" : [
                -1.600000023841858,
                -2.2900004386901855,
                -0.9052790999412537
            ],
            "type" : "VEC3"
        },
        {
            "bufferView" : 9,
            "componentType" : 5126,
            "count" : 7863,
            "type" : "VEC2"
        },
        {
            "bufferView" : 10,
            "componentType" : 5126,
            "count" : 7863,
            "type" : "VEC3"
        },
        {
            "bufferView" : 11,
            "componentType" : 5123,
            "count" : 11988,
            "type" : "SCALAR"
        },
        {
            "bufferView" : 12,
            "componentType" : 5126,
            "count" : 952,
            "max" : [
                1.3915948867797852,
                2.3273568153381348,
                -0.07676876336336136
            ],
            "min" : [
                -1.3915950059890747,
                2.062769889831543,
                -0.19299368560314178
            ],
            "type" : "VEC3"
        },
        {
            "bufferView" : 13,
            "componentType" : 5126,
            "count" : 952,
            "type" : "VEC2"
        },
        {
            "bufferView" : 14,
            "componentType" : 5126,
            "count" : 952,
            "type" : "VEC3"
        },
        {
            "bufferView" : 15,
            "componentType" : 5123,
            "count" : 1428,
            "type" : "SCALAR"
        },
        {
            "bufferView" : 16,
            "componentType" : 5126,
            "count" : 576,
            "max" : [
                0.8694339990615845,
                5.002650260925293,
                0.16943398118019104
            ],
            "min" : [
                -0.8694339990615845,
                5,
                -0.36943402886390686
            ],
            "type" : "VEC3"
        },
        {
            "bufferView" : 17,
            "componentType" : 5126,
            "count" : 576,
            "type" : "VEC2"
        },
        {
            "bufferView" : 18,
            "componentType" : 5126,
            "count" : 576,
            "type" : "VEC3"
        },
        {
            "bufferView" : 19,
            "componentType" : 5123,
            "count" : 948,
            "type" : "SCALAR"
        },
        {
            "bufferView" : 20,
            "componentType" : 5126,
            "count" : 126,
            "max" : [
                0.9400827884674072,
                3.0062501430511475,
                0.9962207674980164
            ],
            "min" : [
                -0.9400827884674072,
                1.5300487279891968,
                0.1824910193681717
            ],
            "type" : "VEC3"
        },
        {
            "bufferView" : 21,
            "componentType" : 5126,
            "count" : 126,
            "type" : "VEC2"
        },
        {
            "bufferView" : 22,
            "componentType" : 5126,
            "count" : 126,
            "type" : "VEC3"
        },
        {
            "bufferView" : 23,
            "componentType" : 5123,
            "count" : 624,
            "type" : "SCALAR"
        }
    ],
    "bufferViews" : [
        {
            "buffer" : 0,
            "byteLength" : 70788,
            "byteOffset" : 0,
            "target" : 34962
        },
        {
            "buffer" : 0,
            "byteLength" : 47192,
            "byteOffset" : 70788,
            "target" : 34962
        },
        {
            "buffer" : 0,
            "byteLength" : 70788,
            "byteOffset" : 117980,
            "target" : 34962
        },
        {
            "buffer" : 0,
            "byteLength" : 17952,
            "byteOffset" : 188768,
            "target" : 34963
        },
        {
            "buffer" : 0,
            "byteLength" : 141900,
            "byteOffset" : 206720,
            "target" : 34962
        },
        {
            "buffer" : 0,
            "byteLength" : 94600,
            "byteOffset" : 348620,
            "target" : 34962
        },
        {
            "buffer" : 0,
            "byteLength" : 141900,
            "byteOffset" : 443220,
            "target" : 34962
        },
        {
            "buffer" : 0,
            "byteLength" : 36816,
            "byteOffset" : 585120,
            "target" : 34963
        },
        {
            "buffer" : 0,
            "byteLength" : 94356,
            "byteOffset" : 621936,
            "target" : 34962
        },
        {
            "buffer" : 0,
            "byteLength" : 62904,
            "byteOffset" : 716292,
            "target" : 34962
        },
        {
            "buffer" : 0,
            "byteLength" : 94356,
            "byteOffset" : 779196,
            "target" : 34962
        },
        {
            "buffer" : 0,
            "byteLength" : 23976,
            "byteOffset" : 873552,
            "target" : 34963
        },
        {
            "buffer" : 0,
            "byteLength" : 11424,
            "byteOffset" : 897528,
            "target" : 34962
        },
        {
            "buffer" : 0,
            "byteLength" : 7616,
            "byteOffset" : 908952,
            "target" : 34962
        },
        {
            "buffer" : 0,
            "byteLength" : 11424,
            "byteOffset" : 916568,
            "target" : 34962
        },
        {
            "buffer" : 0,
            "byteLength" : 2856,
            "byteOffset" : 927992,
            "target" : 34963
        },
        {
            "buffer" : 0,
            "byteLength" : 6912,
            "byteOffset" : 930848,
            "target" : 34962
        },
        {
            "buffer" : 0,
            "byteLength" : 4608,
            "byteOffset" : 937760,
            "target" : 34962
        },
        {
            "buffer" : 0,
            "byteLength" : 6912,
            "byteOffset" : 942368,
            "target" : 34962
        },
        {
            "buffer" : 0,
            "byteLength" : 1896,
            "byteOffset" : 949280,
            "target" : 34963
        },
        {
            "buffer" : 0,
            "byteLength" : 1512,
            "byteOffset" : 951176,
            "target" : 34962
        },
        {
            "buffer" : 0,
            "byteLength" : 1008,
            "byteOffset" : 952688,
            "target" : 34962
        },
        {
            "buffer" : 0,
            "byteLength" : 1512,
            "byteOffset" : 953696,
            "target" : 34962
        },
        {
            "buffer" : 0,
            "byteLength" : 1248,
            "byteOffset" : 955208,
            "target" : 34963
        }
    ],
    "buffers" : [
        {
            "byteLength" : 956456,
            "uri" : "data:application/octet-stream;base64,"
        }
    ]
}
